<?xml version="1.0" encoding="UTF-8" standalone="no"?>
<!-- Uploaded to: SVG Repo, www.svgrepo.com, Generator: SVG Repo Mixer Tools -->

<svg
   fill="#000000"
   height="800px"
   width="800px"
   version="1.1"
   id="Layer_1"
   viewBox="0 0 512 512"
   xml:space="preserve"
   sodipodi:docname="sewer_and_water.svg"
   inkscape:version="1.3.1 (91b66b0, 2023-11-16)"
   xmlns:inkscape="http://www.inkscape.org/namespaces/inkscape"
   xmlns:sodipodi="http://sodipodi.sourceforge.net/DTD/sodipodi-0.dtd"
   xmlns="http://www.w3.org/2000/svg"
   xmlns:svg="http://www.w3.org/2000/svg"><defs
   id="defs2" /><sodipodi:namedview
   id="namedview2"
   pagecolor="#ffffff"
   bordercolor="#000000"
   borderopacity="0.25"
   inkscape:showpageshadow="2"
   inkscape:pageopacity="0.0"
   inkscape:pagecheckerboard="0"
   inkscape:deskcolor="#d1d1d1"
   showgrid="false"
   inkscape:zoom="0.66324224"
   inkscape:cx="409.3527"
   inkscape:cy="333.21159"
   inkscape:window-width="1712"
   inkscape:window-height="1041"
   inkscape:window-x="0"
   inkscape:window-y="66"
   inkscape:window-maximized="0"
   inkscape:current-layer="Layer_1" />
<g
   id="g2"
   transform="translate(20.264089)">
	<g
   id="g1">
		<path
   d="m 383.999,230.4 h -80.132 c -5.137,-19.979 -16.059,-37.452 -30.801,-50.663 v -43.204 h 15.933 c 10.055,0 18.202,-8.147 18.202,-18.202 V 86.468 c 0,-10.055 -8.147,-18.202 -18.202,-18.202 H 273.066 V 18.202 C 273.066,8.147 264.919,0 254.864,0 h -100.13 c -10.055,0 -18.202,8.147 -18.202,18.202 v 50.065 h -15.93 c -10.055,0 -18.202,8.147 -18.202,18.202 v 31.863 c 0,10.055 8.147,18.202 18.202,18.202 h 15.93 v 43.15 c -20.946,18.75 -34.131,45.991 -34.131,76.317 0,30.326 13.185,57.567 34.131,76.317 v 43.149 h -15.93 c -10.055,0 -18.202,8.147 -18.202,18.202 v 31.863 c 0,10.055 8.147,18.202 18.202,18.202 h 15.932 v 50.065 c 0,10.055 8.147,18.202 18.202,18.202 h 100.13 c 10.055,0 18.202,-8.147 18.202,-18.202 V 443.734 H 289 c 10.055,0 18.202,-8.147 18.202,-18.202 v -31.863 c 0,-10.055 -8.147,-18.202 -18.202,-18.202 h -15.933 v -43.204 c 14.742,-13.21 25.664,-30.683 30.801,-50.663 H 384 c 14.134,0 25.6,-11.466 25.6,-25.6 -0.001,-14.134 -11.467,-25.6 -25.601,-25.6 z M 153.599,18.202 c 0,-0.629 0.506,-1.135 1.135,-1.135 h 100.13 c 0.629,0 1.135,0.506 1.135,1.135 v 50.065 h -102.4 V 18.202 Z m -34.131,100.13 V 86.468 c 0,-0.629 0.506,-1.135 1.135,-1.135 H 145.066 264.533 289 c 0.629,0 1.135,0.506 1.135,1.135 v 31.863 c 0,0.629 -0.506,1.135 -1.135,1.135 H 264.533 145.066 120.603 c -0.63,0.001 -1.135,-0.505 -1.135,-1.134 z m 34.131,48.971 v -30.769 h 102.4 v 30.769 c -8.869,-5.131 -18.473,-8.896 -28.523,-11.169 -0.079,-0.018 -0.158,-0.034 -0.237,-0.052 -1.273,-0.285 -2.554,-0.544 -3.841,-0.78 -0.237,-0.044 -0.473,-0.088 -0.71,-0.13 -2.749,-0.485 -5.527,-0.862 -8.33,-1.122 -0.342,-0.032 -0.686,-0.056 -1.029,-0.085 -1.059,-0.088 -2.121,-0.159 -3.187,-0.214 -0.393,-0.02 -0.786,-0.042 -1.18,-0.058 -1.38,-0.055 -2.763,-0.093 -4.151,-0.093 -0.002,0 -0.005,0 -0.007,0 0,0 -0.001,0 -0.001,0 0,0 -0.001,0 -0.001,0 -0.003,0 -0.006,0 -0.009,0 -1.036,0 -2.068,0.02 -3.097,0.051 -0.302,0.009 -0.603,0.023 -0.904,0.034 -0.764,0.029 -1.526,0.067 -2.285,0.113 -0.302,0.018 -0.604,0.036 -0.906,0.057 -0.911,0.063 -1.818,0.138 -2.722,0.224 -0.113,0.011 -0.226,0.019 -0.339,0.03 -1.059,0.105 -2.112,0.229 -3.162,0.366 -0.155,0.02 -0.31,0.044 -0.465,0.065 -0.893,0.121 -1.782,0.254 -2.667,0.398 -0.213,0.035 -0.425,0.07 -0.637,0.106 -0.942,0.159 -1.88,0.33 -2.812,0.515 -0.079,0.016 -0.159,0.03 -0.239,0.046 -1.075,0.216 -2.143,0.447 -3.206,0.696 -0.009,0.002 -0.018,0.004 -0.027,0.007 -1.003,0.235 -1.999,0.488 -2.99,0.753 -0.164,0.044 -0.328,0.088 -0.492,0.133 -0.923,0.251 -1.841,0.514 -2.754,0.79 -0.089,0.027 -0.179,0.052 -0.267,0.08 -2.029,0.62 -4.03,1.303 -6.003,2.044 -0.165,0.062 -0.33,0.125 -0.494,0.188 -0.86,0.328 -1.715,0.667 -2.564,1.017 -0.121,0.05 -0.242,0.098 -0.362,0.148 -1.932,0.806 -3.833,1.671 -5.703,2.59 -0.174,0.086 -0.348,0.173 -0.522,0.26 -0.814,0.406 -1.623,0.822 -2.425,1.249 -0.115,0.061 -0.23,0.12 -0.344,0.182 -0.946,0.506 -1.88,1.025 -2.806,1.561 0.001,-0.001 0,-0.001 0,0 z m 102.402,326.495 c 0,0.629 -0.506,1.135 -1.135,1.135 h -100.13 c -0.629,0 -1.135,-0.506 -1.135,-1.135 v -50.065 h 102.4 z m 34.133,-100.13 v 31.863 c 0,0.629 -0.506,1.135 -1.135,1.135 H 264.534 145.068 120.603 c -0.629,0 -1.135,-0.506 -1.135,-1.135 v -31.863 c 0,-0.629 0.506,-1.135 1.135,-1.135 H 145.066 264.533 289 c 0.628,0 1.134,0.506 1.134,1.135 z m -34.135,-48.971 v 30.769 h -102.4 v -30.769 c 0.925,0.535 1.861,1.055 2.804,1.562 0.113,0.061 0.227,0.119 0.34,0.179 0.803,0.428 1.613,0.844 2.429,1.251 0.173,0.086 0.346,0.173 0.519,0.258 1.871,0.92 3.774,1.785 5.707,2.592 0.118,0.049 0.237,0.096 0.355,0.145 0.85,0.351 1.706,0.69 2.567,1.019 0.166,0.063 0.331,0.127 0.498,0.189 1.973,0.741 3.974,1.424 6.003,2.044 0.086,0.026 0.173,0.051 0.259,0.077 0.916,0.277 1.837,0.541 2.763,0.793 0.162,0.044 0.323,0.088 0.485,0.131 0.995,0.266 1.995,0.52 3.001,0.756 0.006,0.001 0.011,0.003 0.017,0.004 1.063,0.249 2.133,0.481 3.208,0.697 0.079,0.016 0.159,0.03 0.239,0.046 0.933,0.185 1.871,0.355 2.812,0.515 0.212,0.036 0.424,0.071 0.637,0.106 0.885,0.144 1.774,0.277 2.667,0.398 0.155,0.021 0.31,0.045 0.465,0.065 1.049,0.137 2.103,0.261 3.162,0.366 0.113,0.011 0.226,0.019 0.339,0.03 0.904,0.087 1.811,0.161 2.722,0.224 0.302,0.021 0.604,0.039 0.906,0.057 0.76,0.046 1.521,0.083 2.285,0.113 0.301,0.012 0.602,0.025 0.904,0.034 1.029,0.031 2.061,0.051 3.097,0.051 0.003,0 0.006,0 0.009,0 0,0 0.001,0 0.001,0 0,0 0.001,0 0.001,0 0.002,0 0.005,0 0.007,0 1.389,0 2.772,-0.037 4.151,-0.093 0.394,-0.016 0.787,-0.038 1.18,-0.058 1.066,-0.055 2.128,-0.126 3.187,-0.214 0.343,-0.029 0.687,-0.053 1.029,-0.085 2.803,-0.26 5.58,-0.637 8.33,-1.122 0.237,-0.042 0.474,-0.086 0.71,-0.13 1.286,-0.236 2.566,-0.495 3.838,-0.779 0.08,-0.018 0.161,-0.034 0.242,-0.052 10.053,-2.273 19.657,-6.037 28.525,-11.169 z m -24.061,-7.79 c -0.019,0.006 -0.038,0.013 -0.056,0.019 -1.003,0.337 -2.016,0.652 -3.035,0.952 -0.127,0.037 -0.254,0.074 -0.38,0.11 -0.934,0.27 -1.875,0.524 -2.821,0.762 -0.226,0.057 -0.453,0.11 -0.68,0.165 -0.866,0.211 -1.737,0.411 -2.613,0.594 -0.326,0.068 -0.653,0.129 -0.98,0.194 -0.795,0.157 -1.592,0.309 -2.394,0.444 -0.431,0.072 -0.865,0.133 -1.298,0.198 -0.715,0.109 -1.429,0.218 -2.149,0.309 -0.553,0.069 -1.109,0.122 -1.664,0.181 -0.617,0.066 -1.232,0.138 -1.853,0.19 -0.719,0.06 -1.442,0.099 -2.164,0.141 -0.472,0.028 -0.941,0.067 -1.414,0.087 -1.207,0.051 -2.419,0.079 -3.635,0.079 -1.376,0 -2.742,-0.039 -4.102,-0.104 -0.448,-0.021 -0.893,-0.059 -1.34,-0.087 -0.911,-0.057 -1.82,-0.121 -2.722,-0.207 -0.523,-0.05 -1.043,-0.111 -1.564,-0.17 -0.827,-0.094 -1.651,-0.197 -2.47,-0.314 -0.534,-0.077 -1.068,-0.158 -1.6,-0.245 -0.812,-0.132 -1.619,-0.278 -2.423,-0.433 -0.513,-0.099 -1.027,-0.196 -1.537,-0.304 -0.854,-0.181 -1.701,-0.381 -2.545,-0.587 -0.443,-0.108 -0.889,-0.208 -1.33,-0.323 -1.085,-0.284 -2.161,-0.592 -3.229,-0.917 -0.19,-0.058 -0.382,-0.106 -0.571,-0.165 -1.271,-0.396 -2.528,-0.823 -3.773,-1.276 -0.298,-0.108 -0.59,-0.23 -0.886,-0.342 -0.934,-0.352 -1.864,-0.713 -2.783,-1.097 -0.416,-0.174 -0.826,-0.36 -1.239,-0.54 -0.79,-0.345 -1.576,-0.696 -2.353,-1.064 -0.45,-0.213 -0.896,-0.435 -1.342,-0.656 -0.726,-0.359 -1.447,-0.727 -2.161,-1.107 -0.464,-0.247 -0.926,-0.497 -1.385,-0.752 -0.68,-0.377 -1.352,-0.766 -2.02,-1.161 -0.47,-0.278 -0.941,-0.556 -1.406,-0.844 -0.639,-0.395 -1.267,-0.804 -1.894,-1.214 -0.474,-0.31 -0.95,-0.616 -1.418,-0.936 -0.598,-0.409 -1.183,-0.835 -1.77,-1.258 -0.476,-0.344 -0.958,-0.679 -1.428,-1.033 -0.571,-0.43 -1.126,-0.881 -1.686,-1.325 -0.441,-0.35 -0.89,-0.688 -1.324,-1.047 -0.01,-0.008 -0.021,-0.013 -0.03,-0.022 -18.935,-15.651 -31.001,-39.318 -31.001,-65.805 0,-26.487 12.066,-50.153 31.002,-65.805 0.01,-0.008 0.02,-0.013 0.03,-0.021 0.43,-0.356 0.875,-0.69 1.311,-1.037 0.565,-0.448 1.124,-0.902 1.7,-1.336 0.468,-0.353 0.949,-0.687 1.423,-1.03 0.588,-0.424 1.174,-0.851 1.773,-1.261 0.468,-0.32 0.944,-0.625 1.418,-0.936 0.627,-0.411 1.256,-0.82 1.894,-1.214 0.465,-0.287 0.935,-0.565 1.406,-0.843 0.669,-0.396 1.341,-0.785 2.022,-1.162 0.459,-0.255 0.92,-0.505 1.384,-0.751 0.714,-0.379 1.434,-0.747 2.16,-1.106 0.447,-0.221 0.893,-0.443 1.344,-0.656 0.778,-0.368 1.565,-0.72 2.355,-1.065 0.411,-0.18 0.82,-0.365 1.235,-0.538 0.92,-0.384 1.851,-0.746 2.786,-1.099 0.295,-0.111 0.587,-0.233 0.884,-0.341 1.245,-0.453 2.503,-0.88 3.774,-1.277 0.186,-0.058 0.375,-0.106 0.561,-0.162 1.071,-0.326 2.149,-0.635 3.238,-0.919 0.441,-0.115 0.887,-0.215 1.33,-0.323 0.844,-0.206 1.691,-0.406 2.545,-0.587 0.511,-0.108 1.024,-0.205 1.538,-0.304 0.803,-0.155 1.609,-0.3 2.42,-0.432 0.533,-0.087 1.068,-0.169 1.604,-0.245 0.818,-0.117 1.641,-0.22 2.467,-0.313 0.521,-0.059 1.042,-0.121 1.565,-0.17 0.903,-0.086 1.812,-0.15 2.722,-0.207 0.447,-0.028 0.892,-0.066 1.34,-0.087 1.36,-0.064 2.726,-0.104 4.102,-0.104 1.216,0 2.427,0.028 3.635,0.079 0.474,0.02 0.943,0.059 1.414,0.087 0.722,0.042 1.445,0.081 2.164,0.141 0.62,0.052 1.236,0.124 1.853,0.19 0.555,0.059 1.111,0.112 1.664,0.181 0.72,0.091 1.434,0.2 2.149,0.309 0.433,0.066 0.867,0.126 1.298,0.198 0.802,0.135 1.599,0.287 2.394,0.444 0.327,0.064 0.654,0.126 0.98,0.194 0.876,0.184 1.746,0.384 2.613,0.594 0.227,0.055 0.454,0.109 0.68,0.165 0.947,0.239 1.888,0.493 2.823,0.763 0.126,0.036 0.252,0.072 0.377,0.109 1.02,0.3 2.033,0.616 3.038,0.953 0.018,0.006 0.036,0.012 0.053,0.018 25.611,8.609 46.002,29.089 54.216,55.308 h -47.22 c -7.784,-10.362 -20.176,-17.067 -34.133,-17.067 -23.563,0 -42.667,19.104 -42.667,42.667 0,23.563 19.104,42.667 42.667,42.667 13.957,0 26.349,-6.704 34.133,-17.067 h 47.22 c -8.216,26.22 -28.606,46.699 -54.216,55.308 z m -6.466,-95.999 1.338,2.295 c 0.006,0.01 0.009,0.02 0.015,0.029 2.036,3.492 3.235,7.222 3.511,11.056 0.002,0.031 0.005,0.061 0.007,0.092 0.037,0.538 0.056,1.078 0.056,1.62 0,0.542 -0.02,1.082 -0.056,1.62 -0.002,0.031 -0.005,0.061 -0.007,0.092 -0.276,3.835 -1.475,7.564 -3.511,11.056 -0.006,0.01 -0.009,0.02 -0.015,0.029 l -1.338,2.294 c -4.657,6.368 -12.181,10.508 -20.673,10.508 -14.137,0 -25.6,-11.463 -25.6,-25.6 0,-14.137 11.463,-25.6 25.6,-25.6 8.493,0.001 16.016,4.141 20.673,10.509 z m 158.527,23.625 H 307.283 246.61 c 0.421,-2.072 0.692,-4.198 0.8,-6.366 0.038,-0.719 0.057,-1.442 0.057,-2.167 0,-0.725 -0.019,-1.448 -0.057,-2.167 -0.109,-2.169 -0.38,-4.295 -0.8,-6.366 h 60.673 76.716 c 4.708,0 8.533,3.825 8.533,8.533 0,4.708 -3.825,8.533 -8.533,8.533 z"
   id="path1" />
	</g>
</g>
</svg>
