<?xml version="1.0" encoding="UTF-8" standalone="no"?>
<!-- Uploaded to: SVG Repo, www.svgrepo.com, Generator: SVG Repo Mixer Tools -->

<svg
   fill="#000000"
   version="1.1"
   id="Capa_1"
   width="800px"
   height="800px"
   viewBox="0 0 1024 1024"
   xml:space="preserve"
   sodipodi:docname="buildings.svg"
   inkscape:version="1.3.1 (91b66b0, 2023-11-16)"
   xmlns:inkscape="http://www.inkscape.org/namespaces/inkscape"
   xmlns:sodipodi="http://sodipodi.sourceforge.net/DTD/sodipodi-0.dtd"
   xmlns="http://www.w3.org/2000/svg"
   xmlns:svg="http://www.w3.org/2000/svg"><defs
   id="defs2" /><sodipodi:namedview
   id="namedview2"
   pagecolor="#ffffff"
   bordercolor="#000000"
   borderopacity="0.25"
   inkscape:showpageshadow="2"
   inkscape:pageopacity="0.0"
   inkscape:pagecheckerboard="0"
   inkscape:deskcolor="#d1d1d1"
   inkscape:zoom="0.295"
   inkscape:cx="398.30508"
   inkscape:cy="400"
   inkscape:window-width="1712"
   inkscape:window-height="1041"
   inkscape:window-x="0"
   inkscape:window-y="66"
   inkscape:window-maximized="0"
   inkscape:current-layer="Capa_1" />
<g
   id="g2"
   transform="matrix(1,0,0,1.0787151,43.389831,8.6779665)">
	<g
   id="g1">
		<path
   d="M 707.147,66 V 10 c 0,-5.523 -4.478,-10 -10,-10 H 434.542 c -5.523,0 -10,4.477 -10,10 v 46 c 0,5.523 -4.477,10 -10,10 H 239.937 c -5.523,0 -10,4.477 -10,10 V 890.915 H 78.542 c -5.523,0 -10,4.477 -10,10 v 26.169 c 0,5.523 4.477,10 10,10 h 780 c 5.523,0 10,-4.477 10,-10 v -26.169 c 0,-5.523 -4.477,-10 -10,-10 H 707.147 V 120 Z M 336.665,647.643 c 0,5.523 -4.477,10 -10,10 h -29.731 c -5.522,0 -10,-4.477 -10,-10 v -30.997 c 0,-5.523 4.478,-10 10,-10 h 29.731 c 5.523,0 10,4.477 10,10 z m 0,-91.495 c 0,5.522 -4.477,10 -10,10 h -29.731 c -5.522,0 -10,-4.478 -10,-10 V 525.15 c 0,-5.523 4.478,-10 10,-10 h 29.731 c 5.523,0 10,4.477 10,10 z m 0,-91.496 c 0,5.522 -4.477,10 -10,10 h -29.731 c -5.522,0 -10,-4.478 -10,-10 v -30.997 c 0,-5.523 4.478,-10 10,-10 h 29.731 c 5.523,0 10,4.477 10,10 z m 0,-91.495 c 0,5.522 -4.477,10 -10,10 h -29.731 c -5.522,0 -10,-4.478 -10,-10 v -30.998 c 0,-5.523 4.478,-10 10,-10 h 29.731 c 5.523,0 10,4.477 10,10 z m 0,-91.496 c 0,5.523 -4.477,10 -10,10 h -29.731 c -5.522,0 -10,-4.477 -10,-10 v -30.998 c 0,-5.523 4.478,-10 10,-10 h 29.731 c 5.523,0 10,4.477 10,10 z m 0,-91.495 c 0,5.523 -4.477,10 -10,10 h -29.731 c -5.522,0 -10,-4.477 -10,-10 v -30.998 c 0,-5.523 4.478,-10 10,-10 h 29.731 c 5.523,0 10,4.477 10,10 z m 233.877,700.749 h -204 V 777.354 c 0,-5.523 4.477,-10 10,-10 h 184 c 5.523,0 10,4.477 10,10 z M 650.15,647.643 c 0,5.523 -4.478,10 -10,10 H 390.542 c -5.523,0 -10,-4.477 -10,-10 v -30.997 c 0,-5.523 4.477,-10 10,-10 H 640.15 c 5.522,0 10,4.477 10,10 z m 0,-91.495 c 0,5.522 -4.478,10 -10,10 H 390.542 c -5.523,0 -10,-4.478 -10,-10 V 525.15 c 0,-5.523 4.477,-10 10,-10 H 640.15 c 5.522,0 10,4.477 10,10 z m 0,-91.496 c 0,5.522 -4.478,10 -10,10 H 390.542 c -5.523,0 -10,-4.478 -10,-10 v -30.997 c 0,-5.523 4.477,-10 10,-10 H 640.15 c 5.522,0 10,4.477 10,10 z m 0,-91.495 c 0,5.522 -4.478,10 -10,10 H 390.542 c -5.523,0 -10,-4.478 -10,-10 v -30.998 c 0,-5.523 4.477,-10 10,-10 H 640.15 c 5.522,0 10,4.477 10,10 z m 0,-91.496 c 0,5.523 -4.478,10 -10,10 H 390.542 c -5.523,0 -10,-4.477 -10,-10 v -30.998 c 0,-5.523 4.477,-10 10,-10 H 640.15 c 5.522,0 10,4.477 10,10 z m 0,-91.495 c 0,5.523 -4.478,10 -10,10 H 390.542 c -5.523,0 -10,-4.477 -10,-10 v -30.998 c 0,-5.523 4.477,-10 10,-10 H 640.15 c 5.522,0 10,4.477 10,10 z"
   id="path1" />
	</g>
</g>
</svg>
