<?xml version="1.0" encoding="UTF-8" standalone="no"?>
<!-- Uploaded to: SVG Repo, www.svgrepo.com, Generator: SVG Repo Mixer Tools -->

<svg
   width="800px"
   height="800px"
   viewBox="0 0 24 24"
   version="1.1"
   id="svg2"
   sodipodi:docname="shake_intensity.svg"
   inkscape:version="1.3.1 (91b66b0, 2023-11-16)"
   xmlns:inkscape="http://www.inkscape.org/namespaces/inkscape"
   xmlns:sodipodi="http://sodipodi.sourceforge.net/DTD/sodipodi-0.dtd"
   xmlns="http://www.w3.org/2000/svg"
   xmlns:svg="http://www.w3.org/2000/svg">
  <defs
     id="defs2" />
  <sodipodi:namedview
     id="namedview2"
     pagecolor="#ffffff"
     bordercolor="#000000"
     borderopacity="0.25"
     inkscape:showpageshadow="2"
     inkscape:pageopacity="0.0"
     inkscape:pagecheckerboard="0"
     inkscape:deskcolor="#d1d1d1"
     inkscape:zoom="0.295"
     inkscape:cx="398.30508"
     inkscape:cy="400"
     inkscape:window-width="1712"
     inkscape:window-height="1041"
     inkscape:window-x="0"
     inkscape:window-y="66"
     inkscape:window-maximized="0"
     inkscape:current-layer="svg2" />
  <g
     id="g2"
     transform="matrix(1,0,0,1.2118644,0,-1.5254237)">
    <path
       fill="none"
       d="M 0,0 H 24 V 24 H 0 Z"
       id="path1" />
    <path
       fill-rule="nonzero"
       d="M 5,21 A 1,1 0 0 1 4.007,20.117 L 4,20 V 11 H 1 L 11.327,1.612 a 1,1 0 0 1 1.246,-0.08 l 0.1,0.08 L 23,11 h -3 v 9 a 1,1 0 0 1 -0.883,0.993 L 19,21 Z M 12,3.702 6,9.156 V 19 h 4.357 L 11.75,17.5 8,14 l 5,-3 -2.5,-2 3,-3 -0.5,3 2.5,2 -4,3 3.5,3 -1.25,2 H 18 V 9.157 Z"
       id="path2" />
  </g>
</svg>
