<svg xmlns="http://www.w3.org/2000/svg" xmlns:xlink="http://www.w3.org/1999/xlink" xmlns:serif="http://www.serif.com/" viewBox="0 0 48 60" version="1.1" xml:space="preserve" style="" x="0px" y="0px" fill-rule="evenodd" clip-rule="evenodd" stroke-linejoin="round" stroke-miterlimit="2"><g transform="matrix(1,0,0,1,-432,-48)"><g><path d="M475.586,83L470,83C469.204,83 468.441,83.316 467.879,83.879C467.316,84.441 467,85.204 467,86L467,91.586L475.586,83Z"/><path d="M468,58L468,52C468,51.448 467.552,51 467,51C466.448,51 466,51.448 466,52L466,55L462,55L462,58C462,58.552 461.552,59 461,59C460.448,59 460,58.552 460,58L460,52C460,51.448 459.552,51 459,51C458.448,51 458,51.448 458,52L458,55L454,55L454,58C454,58.552 453.552,59 453,59C452.448,59 452,58.552 452,58L452,52C452,51.448 451.552,51 451,51C450.448,51 450,51.448 450,52L450,55L446,55L446,58C446,58.552 445.552,59 445,59C444.448,59 444,58.552 444,58L444,52C444,51.448 443.552,51 443,51C442.448,51 442,51.448 442,52L442,55L438,55C437.204,55 436.441,55.316 435.879,55.879C435.316,56.441 435,57.204 435,58C435,65.664 435,82.336 435,90C435,90.796 435.316,91.559 435.879,92.121C436.441,92.684 437.204,93 438,93L464,93C464.552,93 465,92.552 465,92C465,92 465,86 465,86C465,84.674 465.527,83.402 466.464,82.464C467.402,81.527 468.674,81 470,81C470,81 476,81 476,81C476.265,81 476.52,80.895 476.707,80.707C476.895,80.52 477,80.265 477,80C477,74.236 477,58 477,58C477,57.204 476.684,56.441 476.121,55.879C475.559,55.316 474.796,55 474,55L470,55L470,58C470,58.552 469.552,59 469,59C468.448,59 468,58.552 468,58ZM451,83.2C451,82.617 450.768,82.057 450.356,81.644C449.943,81.232 449.383,81 448.8,81L447.2,81C446.617,81 446.057,81.232 445.644,81.644C445.232,82.057 445,82.617 445,83.2L445,84.8C445,85.383 445.232,85.943 445.644,86.356C446.057,86.768 446.617,87 447.2,87L448.8,87C449.383,87 449.943,86.768 450.356,86.356C450.768,85.943 451,85.383 451,84.8L451,83.2ZM443,83.2C443,82.617 442.768,82.057 442.356,81.644C441.943,81.232 441.383,81 440.8,81L439.2,81C438.617,81 438.057,81.232 437.644,81.644C437.232,82.057 437,82.617 437,83.2L437,84.8C437,85.383 437.232,85.943 437.644,86.356C438.057,86.768 438.617,87 439.2,87L440.8,87C441.383,87 441.943,86.768 442.356,86.356C442.768,85.943 443,85.383 443,84.8L443,83.2ZM459,83.2C459,82.617 458.768,82.057 458.356,81.644C457.943,81.232 457.383,81 456.8,81L455.2,81C454.617,81 454.057,81.232 453.644,81.644C453.232,82.057 453,82.617 453,83.2L453,84.8C453,85.383 453.232,85.943 453.644,86.356C454.057,86.768 454.617,87 455.2,87L456.8,87C457.383,87 457.943,86.768 458.356,86.356C458.768,85.943 459,85.383 459,84.8L459,83.2ZM449,83.2L449,84.8C449,84.853 448.979,84.904 448.941,84.941C448.904,84.979 448.853,85 448.8,85L447.2,85C447.147,85 447.096,84.979 447.059,84.941C447.021,84.904 447,84.853 447,84.8L447,83.2C447,83.147 447.021,83.096 447.059,83.059C447.096,83.021 447.147,83 447.2,83L448.8,83C448.853,83 448.904,83.021 448.941,83.059C448.979,83.096 449,83.147 449,83.2ZM441,83.2L441,84.8C441,84.853 440.979,84.904 440.941,84.941C440.904,84.979 440.853,85 440.8,85L439.2,85C439.147,85 439.096,84.979 439.059,84.941C439.021,84.904 439,84.853 439,84.8L439,83.2C439,83.147 439.021,83.096 439.059,83.059C439.096,83.021 439.147,83 439.2,83L440.8,83C440.853,83 440.904,83.021 440.941,83.059C440.979,83.096 441,83.147 441,83.2ZM457,83.2L457,84.8C457,84.853 456.979,84.904 456.941,84.941C456.904,84.979 456.853,85 456.8,85L455.2,85C455.147,85 455.096,84.979 455.059,84.941C455.021,84.904 455,84.853 455,84.8L455,83.2C455,83.147 455.021,83.096 455.059,83.059C455.096,83.021 455.147,83 455.2,83L456.8,83C456.853,83 456.904,83.021 456.941,83.059C456.979,83.096 457,83.147 457,83.2ZM443,75.2C443,74.617 442.768,74.057 442.356,73.644C441.943,73.232 441.383,73 440.8,73L439.2,73C438.617,73 438.057,73.232 437.644,73.644C437.232,74.057 437,74.617 437,75.2L437,76.8C437,77.383 437.232,77.943 437.644,78.356C438.057,78.768 438.617,79 439.2,79L440.8,79C441.383,79 441.943,78.768 442.356,78.356C442.768,77.943 443,77.383 443,76.8L443,75.2ZM459,75.2C459,74.617 458.768,74.057 458.356,73.644C457.943,73.232 457.383,73 456.8,73L455.2,73C454.617,73 454.057,73.232 453.644,73.644C453.232,74.057 453,74.617 453,75.2L453,76.8C453,77.383 453.232,77.943 453.644,78.356C454.057,78.768 454.617,79 455.2,79L456.8,79C457.383,79 457.943,78.768 458.356,78.356C458.768,77.943 459,77.383 459,76.8L459,75.2ZM467,75.2C467,74.617 466.768,74.057 466.356,73.644C465.943,73.232 465.383,73 464.8,73L463.2,73C462.617,73 462.057,73.232 461.644,73.644C461.232,74.057 461,74.617 461,75.2L461,76.8C461,77.383 461.232,77.943 461.644,78.356C462.057,78.768 462.617,79 463.2,79L464.8,79C465.383,79 465.943,78.768 466.356,78.356C466.768,77.943 467,77.383 467,76.8L467,75.2ZM451,75.2C451,74.617 450.768,74.057 450.356,73.644C449.943,73.232 449.383,73 448.8,73L447.2,73C446.617,73 446.057,73.232 445.644,73.644C445.232,74.057 445,74.617 445,75.2L445,76.8C445,77.383 445.232,77.943 445.644,78.356C446.057,78.768 446.617,79 447.2,79L448.8,79C449.383,79 449.943,78.768 450.356,78.356C450.768,77.943 451,77.383 451,76.8L451,75.2ZM475,75.2C475,74.617 474.768,74.057 474.356,73.644C473.943,73.232 473.383,73 472.8,73L471.2,73C470.617,73 470.057,73.232 469.644,73.644C469.232,74.057 469,74.617 469,75.2L469,76.8C469,77.383 469.232,77.943 469.644,78.356C470.057,78.768 470.617,79 471.2,79L472.8,79C473.383,79 473.943,78.768 474.356,78.356C474.768,77.943 475,77.383 475,76.8L475,75.2ZM457,75.2L457,76.8C457,76.853 456.979,76.904 456.941,76.941C456.904,76.979 456.853,77 456.8,77L455.2,77C455.147,77 455.096,76.979 455.059,76.941C455.021,76.904 455,76.853 455,76.8L455,75.2C455,75.147 455.021,75.096 455.059,75.059C455.096,75.021 455.147,75 455.2,75L456.8,75C456.853,75 456.904,75.021 456.941,75.059C456.979,75.096 457,75.147 457,75.2ZM465,75.2L465,76.8C465,76.853 464.979,76.904 464.941,76.941C464.904,76.979 464.853,77 464.8,77L463.2,77C463.147,77 463.096,76.979 463.059,76.941C463.021,76.904 463,76.853 463,76.8L463,75.2C463,75.147 463.021,75.096 463.059,75.059C463.096,75.021 463.147,75 463.2,75L464.8,75C464.853,75 464.904,75.021 464.941,75.059C464.979,75.096 465,75.147 465,75.2ZM441,75.2L441,76.8C441,76.853 440.979,76.904 440.941,76.941C440.904,76.979 440.853,77 440.8,77L439.2,77C439.147,77 439.096,76.979 439.059,76.941C439.021,76.904 439,76.853 439,76.8L439,75.2C439,75.147 439.021,75.096 439.059,75.059C439.096,75.021 439.147,75 439.2,75L440.8,75C440.853,75 440.904,75.021 440.941,75.059C440.979,75.096 441,75.147 441,75.2ZM473,75.2L473,76.8C473,76.853 472.979,76.904 472.941,76.941C472.904,76.979 472.853,77 472.8,77L471.2,77C471.147,77 471.096,76.979 471.059,76.941C471.021,76.904 471,76.853 471,76.8L471,75.2C471,75.147 471.021,75.096 471.059,75.059C471.096,75.021 471.147,75 471.2,75L472.8,75C472.853,75 472.904,75.021 472.941,75.059C472.979,75.096 473,75.147 473,75.2ZM449,75.2L449,76.8C449,76.853 448.979,76.904 448.941,76.941C448.904,76.979 448.853,77 448.8,77L447.2,77C447.147,77 447.096,76.979 447.059,76.941C447.021,76.904 447,76.853 447,76.8L447,75.2C447,75.147 447.021,75.096 447.059,75.059C447.096,75.021 447.147,75 447.2,75L448.8,75C448.853,75 448.904,75.021 448.941,75.059C448.979,75.096 449,75.147 449,75.2ZM443,67.2C443,66.617 442.768,66.057 442.356,65.644C441.943,65.232 441.383,65 440.8,65L439.2,65C438.617,65 438.057,65.232 437.644,65.644C437.232,66.057 437,66.617 437,67.2L437,68.8C437,69.383 437.232,69.943 437.644,70.356C438.057,70.768 438.617,71 439.2,71L440.8,71C441.383,71 441.943,70.768 442.356,70.356C442.768,69.943 443,69.383 443,68.8L443,67.2ZM475,67.2C475,66.617 474.768,66.057 474.356,65.644C473.943,65.232 473.383,65 472.8,65L471.2,65C470.617,65 470.057,65.232 469.644,65.644C469.232,66.057 469,66.617 469,67.2L469,68.8C469,69.383 469.232,69.943 469.644,70.356C470.057,70.768 470.617,71 471.2,71L472.8,71C473.383,71 473.943,70.768 474.356,70.356C474.768,69.943 475,69.383 475,68.8L475,67.2ZM451,67.2C451,66.617 450.768,66.057 450.356,65.644C449.943,65.232 449.383,65 448.8,65L447.2,65C446.617,65 446.057,65.232 445.644,65.644C445.232,66.057 445,66.617 445,67.2L445,68.8C445,69.383 445.232,69.943 445.644,70.356C446.057,70.768 446.617,71 447.2,71L448.8,71C449.383,71 449.943,70.768 450.356,70.356C450.768,69.943 451,69.383 451,68.8L451,67.2ZM467,67.2C467,66.617 466.768,66.057 466.356,65.644C465.943,65.232 465.383,65 464.8,65L463.2,65C462.617,65 462.057,65.232 461.644,65.644C461.232,66.057 461,66.617 461,67.2L461,68.8C461,69.383 461.232,69.943 461.644,70.356C462.057,70.768 462.617,71 463.2,71L464.8,71C465.383,71 465.943,70.768 466.356,70.356C466.768,69.943 467,69.383 467,68.8L467,67.2ZM459,67.2C459,66.617 458.768,66.057 458.356,65.644C457.943,65.232 457.383,65 456.8,65L455.2,65C454.617,65 454.057,65.232 453.644,65.644C453.232,66.057 453,66.617 453,67.2L453,68.8C453,69.383 453.232,69.943 453.644,70.356C454.057,70.768 454.617,71 455.2,71L456.8,71C457.383,71 457.943,70.768 458.356,70.356C458.768,69.943 459,69.383 459,68.8L459,67.2ZM457,67.2L457,68.8C457,68.853 456.979,68.904 456.941,68.941C456.904,68.979 456.853,69 456.8,69L455.2,69C455.147,69 455.096,68.979 455.059,68.941C455.021,68.904 455,68.853 455,68.8L455,67.2C455,67.147 455.021,67.096 455.059,67.059C455.096,67.021 455.147,67 455.2,67L456.8,67C456.853,67 456.904,67.021 456.941,67.059C456.979,67.096 457,67.147 457,67.2ZM441,67.2L441,68.8C441,68.853 440.979,68.904 440.941,68.941C440.904,68.979 440.853,69 440.8,69L439.2,69C439.147,69 439.096,68.979 439.059,68.941C439.021,68.904 439,68.853 439,68.8L439,67.2C439,67.147 439.021,67.096 439.059,67.059C439.096,67.021 439.147,67 439.2,67L440.8,67C440.853,67 440.904,67.021 440.941,67.059C440.979,67.096 441,67.147 441,67.2ZM473,67.2L473,68.8C473,68.853 472.979,68.904 472.941,68.941C472.904,68.979 472.853,69 472.8,69L471.2,69C471.147,69 471.096,68.979 471.059,68.941C471.021,68.904 471,68.853 471,68.8L471,67.2C471,67.147 471.021,67.096 471.059,67.059C471.096,67.021 471.147,67 471.2,67L472.8,67C472.853,67 472.904,67.021 472.941,67.059C472.979,67.096 473,67.147 473,67.2ZM449,67.2L449,68.8C449,68.853 448.979,68.904 448.941,68.941C448.904,68.979 448.853,69 448.8,69L447.2,69C447.147,69 447.096,68.979 447.059,68.941C447.021,68.904 447,68.853 447,68.8L447,67.2C447,67.147 447.021,67.096 447.059,67.059C447.096,67.021 447.147,67 447.2,67L448.8,67C448.853,67 448.904,67.021 448.941,67.059C448.979,67.096 449,67.147 449,67.2ZM465,67.2L465,68.8C465,68.853 464.979,68.904 464.941,68.941C464.904,68.979 464.853,69 464.8,69L463.2,69C463.147,69 463.096,68.979 463.059,68.941C463.021,68.904 463,68.853 463,68.8L463,67.2C463,67.147 463.021,67.096 463.059,67.059C463.096,67.021 463.147,67 463.2,67L464.8,67C464.853,67 464.904,67.021 464.941,67.059C464.979,67.096 465,67.147 465,67.2Z"/></g></g><text x="0" y="63" fill="#000000" font-size="5px" font-weight="bold" font-family="'Helvetica Neue', Helvetica, Arial-Unicode, Arial, Sans-serif">Created by Mada Creative</text><text x="0" y="68" fill="#000000" font-size="5px" font-weight="bold" font-family="'Helvetica Neue', Helvetica, Arial-Unicode, Arial, Sans-serif">from the Noun Project</text></svg>